<svg xmlns="http://www.w3.org/2000/svg" viewBox="0 0 100 100" width="100" height="100">
  <!-- Football shape -->
  <ellipse cx="50" cy="50" rx="45" ry="28" fill="#8B4513" stroke="#654321" stroke-width="2"/>
  
  <!-- Football laces/lines -->
  <line x1="20" y1="35" x2="80" y2="35" stroke="#654321" stroke-width="1.5"/>
  <line x1="20" y1="45" x2="80" y2="45" stroke="#654321" stroke-width="1.5"/>
  <line x1="20" y1="55" x2="80" y2="55" stroke="#654321" stroke-width="1.5"/>
  <line x1="20" y1="65" x2="80" y2="65" stroke="#654321" stroke-width="1.5"/>
  
  <!-- Vertical center line -->
  <line x1="50" y1="22" x2="50" y2="78" stroke="#654321" stroke-width="1"/>
  
  <!-- End zone lines -->
  <line x1="20" y1="30" x2="20" y2="70" stroke="#654321" stroke-width="2"/>
  <line x1="80" y1="30" x2="80" y2="70" stroke="#654321" stroke-width="2"/>
  
  <!-- Football stitching pattern -->
  <g stroke="#654321" stroke-width="0.8" fill="none">
    <path d="M 25 40 Q 30 42 35 40"/>
    <path d="M 25 50 Q 30 52 35 50"/>
    <path d="M 25 60 Q 30 62 35 60"/>
    <path d="M 65 40 Q 70 42 75 40"/>
    <path d="M 65 50 Q 70 52 75 50"/>
    <path d="M 65 60 Q 70 62 75 60"/>
  </g>
</svg>
